<?xml version="1.0" encoding="utf-8"?>
<!-- Generator: Adobe Illustrator 19.0.0, SVG Export Plug-In . SVG Version: 6.00 Build 0)  -->
<svg version="1.1" class="svg-inline--fa fa-star fa-w-18 mr-2" id="Layer_1" xmlns="http://www.w3.org/2000/svg" xmlns:xlink="http://www.w3.org/1999/xlink" x="0px" y="0px"
	 viewBox="-287 289 24 24" style="enable-background:new -287 289 24 24;" xml:space="preserve">
<path class="st0" d="M-267.5,299c-2.5,0-4.5,2-4.5,4.5s2,4.5,4.5,4.5s4.5-2,4.5-4.5S-265,299-267.5,299z M-265,304h-2v2h-1v-2h-2v-1h2v-2h1v2h2
	V304z"/>
<path d="M-271.5,308.6c-1.1,1.1-2.3,2.2-3.5,3.4c-6.4-6.4-12-11.1-12-15.8c0-6.8,8.9-8.3,12-2.9c3.1-5.4,12-3.8,12,2.9
	c0,0.7-0.2,1.5-0.4,2.3c-1.1-0.9-2.5-1.4-4.1-1.4c-3.6,0-6.5,2.9-6.5,6.5C-274,305.6-273,307.4-271.5,308.6z"/>
</svg>
