<?xml version="1.0" encoding="utf-8"?>
<!-- Generator: Adobe Illustrator 19.0.0, SVG Export Plug-In . SVG Version: 6.00 Build 0)  -->
<svg version="1.1" id="Layer_1" xmlns="http://www.w3.org/2000/svg" xmlns:xlink="http://www.w3.org/1999/xlink" x="0px" y="0px"
	 viewBox="-287 289 24 24" style="enable-background:new -287 289 24 24;" xml:space="preserve">
<style type="text/css">
	.st0{fill:#FFC107;}
	.st1{fill:#FFFFFF;}
</style>
<path class="st0" d="M-270.8,295.4c-4.2,0-7.6,3.4-7.6,7.6s3.4,7.6,7.6,7.6s7.6-3.4,7.6-7.6S-266.5,295.4-270.8,295.4z
	 M-266.5,303.8h-8.4v-1.7h8.4V303.8z"/>
<path class="st1" d="M-279.3,303c0-4.7,3.8-8.5,8.5-8.5c3.1,0,5.7,1.6,7.2,4c0.3-0.9,0.5-1.8,0.5-2.7c0-7.4-8.9-9.1-12-3.2
	c-3.1-5.9-12-4.3-12,3.2c0,5.1,5.6,10.3,12,17.3c0.6-0.6,1.1-1.2,1.7-1.8C-276.8,310.1-279.3,306.9-279.3,303z"/>
</svg>
